#tb 0: 1/25
#media_type 0: video
#codec_id 0: rawvideo
#dimensions 0: 176x288
#sar 0: 0/1
0,          0,          0,        1,   152064, 0x06b8906b
0,          1,          1,        1,   152064, 0x7de5771f
0,          2,          2,        1,   152064, 0x52daa80d
0,          3,          3,        1,   152064, 0xa4ad267a
0,          4,          4,        1,   152064, 0xef4d1268
